<mxfile host="app.diagrams.net" agent="Mozilla/5.0 (Macintosh; Intel Mac OS X 10_15_7) AppleWebKit/605.1.15 (KHTML, like Gecko) Version/16.6 Safari/605.1.15" version="25.0.3">
  <diagram name="Page-1" id="2YBvvXClWsGukQMizWep">
    <mxGraphModel dx="1026" dy="692" grid="1" gridSize="10" guides="1" tooltips="1" connect="1" arrows="1" fold="1" page="1" pageScale="1" pageWidth="850" pageHeight="1100" math="0" shadow="0">
      <root>
        <mxCell id="0" />
        <mxCell id="1" parent="0" />
        <mxCell id="1ZKG4CmkqfWAM7Gi57S6-19" value="redirectProfilePage()" style="html=1;verticalAlign=bottom;endArrow=open;dashed=1;endSize=8;curved=0;rounded=0;" parent="1" edge="1">
          <mxGeometry x="-0.0023" relative="1" as="geometry">
            <mxPoint x="509.5" y="703" as="sourcePoint" />
            <mxPoint x="210" y="703" as="targetPoint" />
            <Array as="points">
              <mxPoint x="450" y="703" />
              <mxPoint x="390" y="703" />
              <mxPoint x="330" y="703" />
              <mxPoint x="300" y="703" />
            </Array>
            <mxPoint as="offset" />
          </mxGeometry>
        </mxCell>
        <mxCell id="1ZKG4CmkqfWAM7Gi57S6-25" value="" style="endArrow=none;dashed=1;html=1;rounded=0;exitX=0;exitY=0.53;exitDx=0;exitDy=0;exitPerimeter=0;entryX=0.998;entryY=0.53;entryDx=0;entryDy=0;entryPerimeter=0;" parent="1" edge="1">
          <mxGeometry width="50" height="50" relative="1" as="geometry">
            <mxPoint x="175" y="741.94" as="sourcePoint" />
            <mxPoint x="589.1700000000001" y="741.94" as="targetPoint" />
            <Array as="points" />
          </mxGeometry>
        </mxCell>
        <mxCell id="1ZKG4CmkqfWAM7Gi57S6-6" value="&lt;b&gt;SD&lt;/b&gt;&amp;nbsp;University&amp;nbsp;Registration" style="shape=umlFrame;whiteSpace=wrap;html=1;pointerEvents=0;width=160;height=30;" parent="1" vertex="1">
          <mxGeometry x="160" y="340" width="450" height="540" as="geometry" />
        </mxCell>
        <mxCell id="1ZKG4CmkqfWAM7Gi57S6-11" value="S&amp;amp;C" style="shape=umlLifeline;perimeter=lifelinePerimeter;whiteSpace=wrap;html=1;container=1;dropTarget=0;collapsible=0;recursiveResize=0;outlineConnect=0;portConstraint=eastwest;newEdgeStyle={&quot;curved&quot;:0,&quot;rounded&quot;:0};" parent="1" vertex="1">
          <mxGeometry x="460" y="380" width="100" height="460" as="geometry" />
        </mxCell>
        <mxCell id="Gw3LUGfZnfMUm4rp8UOA-1" value="" style="html=1;points=[[0,0,0,0,5],[0,1,0,0,-5],[1,0,0,0,5],[1,1,0,0,-5]];perimeter=orthogonalPerimeter;outlineConnect=0;targetShapes=umlLifeline;portConstraint=eastwest;newEdgeStyle={&quot;curved&quot;:0,&quot;rounded&quot;:0};" parent="1ZKG4CmkqfWAM7Gi57S6-11" vertex="1">
          <mxGeometry x="45" y="60" width="10" height="30" as="geometry" />
        </mxCell>
        <mxCell id="Gw3LUGfZnfMUm4rp8UOA-2" value="" style="html=1;points=[[0,0,0,0,5],[0,1,0,0,-5],[1,0,0,0,5],[1,1,0,0,-5]];perimeter=orthogonalPerimeter;outlineConnect=0;targetShapes=umlLifeline;portConstraint=eastwest;newEdgeStyle={&quot;curved&quot;:0,&quot;rounded&quot;:0};" parent="1ZKG4CmkqfWAM7Gi57S6-11" vertex="1">
          <mxGeometry x="45" y="127" width="10" height="303" as="geometry" />
        </mxCell>
        <mxCell id="ymWepqPld3naHtEsWhe9-15" value="" style="html=1;points=[[0,0,0,0,5],[0,1,0,0,-5],[1,0,0,0,5],[1,1,0,0,-5]];perimeter=orthogonalPerimeter;outlineConnect=0;targetShapes=umlLifeline;portConstraint=eastwest;newEdgeStyle={&quot;curved&quot;:0,&quot;rounded&quot;:0};" parent="1ZKG4CmkqfWAM7Gi57S6-11" vertex="1">
          <mxGeometry x="50" y="170" width="10" height="30" as="geometry" />
        </mxCell>
        <mxCell id="ymWepqPld3naHtEsWhe9-16" value="checkCredentials(credentials)" style="html=1;align=left;spacingLeft=2;endArrow=block;rounded=0;edgeStyle=orthogonalEdgeStyle;curved=0;rounded=0;" parent="1ZKG4CmkqfWAM7Gi57S6-11" edge="1">
          <mxGeometry x="-1" y="-36" relative="1" as="geometry">
            <mxPoint x="55" y="150" as="sourcePoint" />
            <Array as="points">
              <mxPoint x="85" y="150" />
              <mxPoint x="85" y="180" />
            </Array>
            <mxPoint x="-35" y="-26" as="offset" />
            <mxPoint x="60" y="180" as="targetPoint" />
          </mxGeometry>
        </mxCell>
        <mxCell id="1ZKG4CmkqfWAM7Gi57S6-17" style="edgeStyle=orthogonalEdgeStyle;rounded=0;orthogonalLoop=1;jettySize=auto;html=1;curved=0;" parent="1" edge="1">
          <mxGeometry relative="1" as="geometry">
            <mxPoint x="209.81034482758616" y="506.9999999999999" as="sourcePoint" />
            <mxPoint x="509.5" y="506.9999999999999" as="targetPoint" />
          </mxGeometry>
        </mxCell>
        <mxCell id="1ZKG4CmkqfWAM7Gi57S6-18" value="insertCredentials(credentials)" style="edgeLabel;html=1;align=center;verticalAlign=middle;resizable=0;points=[];" parent="1ZKG4CmkqfWAM7Gi57S6-17" vertex="1" connectable="0">
          <mxGeometry x="0.0133" y="1" relative="1" as="geometry">
            <mxPoint y="-9" as="offset" />
          </mxGeometry>
        </mxCell>
        <mxCell id="1ZKG4CmkqfWAM7Gi57S6-13" value="" style="shape=umlLifeline;perimeter=lifelinePerimeter;whiteSpace=wrap;html=1;container=1;dropTarget=0;collapsible=0;recursiveResize=0;outlineConnect=0;portConstraint=eastwest;newEdgeStyle={&quot;curved&quot;:0,&quot;rounded&quot;:0};participant=umlActor;size=40;" parent="1" vertex="1">
          <mxGeometry x="200" y="380" width="20" height="460" as="geometry" />
        </mxCell>
        <mxCell id="1ZKG4CmkqfWAM7Gi57S6-14" value="University" style="text;html=1;align=center;verticalAlign=middle;resizable=0;points=[];autosize=1;strokeColor=none;fillColor=none;" parent="1" vertex="1">
          <mxGeometry x="210" y="390" width="80" height="30" as="geometry" />
        </mxCell>
        <mxCell id="1ZKG4CmkqfWAM7Gi57S6-16" value="redirectToRegistrationPage()" style="html=1;verticalAlign=bottom;endArrow=open;dashed=1;endSize=8;curved=0;rounded=0;" parent="1" edge="1">
          <mxGeometry relative="1" as="geometry">
            <mxPoint x="509.5" y="470" as="sourcePoint" />
            <mxPoint x="209.5" y="470" as="targetPoint" />
            <Array as="points">
              <mxPoint x="390" y="470" />
            </Array>
            <mxPoint as="offset" />
          </mxGeometry>
        </mxCell>
        <mxCell id="1ZKG4CmkqfWAM7Gi57S6-23" value="alternative" style="shape=umlFrame;whiteSpace=wrap;html=1;pointerEvents=0;width=75;height=30;" parent="1" vertex="1">
          <mxGeometry x="175" y="602" width="415" height="258" as="geometry" />
        </mxCell>
        <mxCell id="1ZKG4CmkqfWAM7Gi57S6-24" value="if checkCredentials(credentials)" style="text;html=1;align=center;verticalAlign=middle;resizable=0;points=[];autosize=1;strokeColor=none;fillColor=none;labelBackgroundColor=default;" parent="1" vertex="1">
          <mxGeometry x="175" y="633" width="190" height="30" as="geometry" />
        </mxCell>
        <mxCell id="1ZKG4CmkqfWAM7Gi57S6-26" value="&lt;span style=&quot;background-color: rgb(255, 255, 255);&quot;&gt;else&lt;/span&gt;" style="text;html=1;align=center;verticalAlign=middle;resizable=0;points=[];autosize=1;strokeColor=none;fillColor=none;" parent="1" vertex="1">
          <mxGeometry x="175" y="740" width="50" height="30" as="geometry" />
        </mxCell>
        <mxCell id="1ZKG4CmkqfWAM7Gi57S6-27" value="redirectLoginPage(message)" style="html=1;verticalAlign=bottom;endArrow=open;dashed=1;endSize=8;curved=0;rounded=0;" parent="1" target="1ZKG4CmkqfWAM7Gi57S6-13" edge="1">
          <mxGeometry x="-0.005" relative="1" as="geometry">
            <mxPoint x="510" y="810" as="sourcePoint" />
            <mxPoint x="215.5" y="810" as="targetPoint" />
            <Array as="points">
              <mxPoint x="455.5" y="810" />
              <mxPoint x="395.5" y="810" />
              <mxPoint x="335.5" y="810" />
              <mxPoint x="305.5" y="810" />
            </Array>
            <mxPoint as="offset" />
          </mxGeometry>
        </mxCell>
        <mxCell id="ymWepqPld3naHtEsWhe9-26" value="" style="html=1;points=[[0,0,0,0,5],[0,1,0,0,-5],[1,0,0,0,5],[1,1,0,0,-5]];perimeter=orthogonalPerimeter;outlineConnect=0;targetShapes=umlLifeline;portConstraint=eastwest;newEdgeStyle={&quot;curved&quot;:0,&quot;rounded&quot;:0};" parent="1" vertex="1">
          <mxGeometry x="510" y="660" width="10" height="30" as="geometry" />
        </mxCell>
        <mxCell id="ymWepqPld3naHtEsWhe9-27" value="writeToDb(credentials)" style="html=1;align=left;spacingLeft=2;endArrow=block;rounded=0;edgeStyle=orthogonalEdgeStyle;curved=0;rounded=0;" parent="1" edge="1">
          <mxGeometry x="-1" y="-36" relative="1" as="geometry">
            <mxPoint x="515" y="640" as="sourcePoint" />
            <Array as="points">
              <mxPoint x="545" y="670" />
            </Array>
            <mxPoint x="520" y="670" as="targetPoint" />
            <mxPoint x="-35" y="-26" as="offset" />
          </mxGeometry>
        </mxCell>
        <mxCell id="aM9ryv3xv72pqoxQDRHE-7" value="getRegistrationPage()" style="html=1;verticalAlign=bottom;endArrow=block;edgeStyle=elbowEdgeStyle;elbow=vertical;curved=0;rounded=0;" parent="1" edge="1">
          <mxGeometry x="0.001" relative="1" as="geometry">
            <mxPoint x="209.81034482758616" y="439.9999999999999" as="sourcePoint" />
            <Array as="points">
              <mxPoint x="400" y="440" />
              <mxPoint x="365" y="410" />
            </Array>
            <mxPoint x="509.5" y="439.9999999999999" as="targetPoint" />
            <mxPoint as="offset" />
          </mxGeometry>
        </mxCell>
      </root>
    </mxGraphModel>
  </diagram>
</mxfile>
